<?xml version="1.0" standalone="no"?><!DOCTYPE svg PUBLIC "-//W3C//DTD SVG 1.1//EN" "http://www.w3.org/Graphics/SVG/1.1/DTD/svg11.dtd"><svg t="1560923923982" class="icon" style="" viewBox="0 0 1024 1024" version="1.1" xmlns="http://www.w3.org/2000/svg" p-id="3039" xmlns:xlink="http://www.w3.org/1999/xlink" width="200" height="200"><defs><style type="text/css">@font-face { font-family: rbicon; src: url("chrome-extension://dipiagiiohfljcicegpgffpbnjmgjcnf/fonts/rbicon.woff2") format("woff2"); font-weight: normal; font-style: normal; }
</style></defs><path d="M576 640h64v128h-64zM384 640h64v128h-64z" fill="#505B7E" p-id="3040"></path><path d="M757.6 293.6C726.4 160.9 628.3 64 512 64c-116.1 0-214.1 96.6-245.5 229-25.7 11.9-44.5 48.5-44.5 92 0 43.7 19 80.6 45 92.2 25.8 106.1 94.6 188.9 181 216.7v-66.7c-63.1-25.9-112.6-89-132-168.6-20.8-9.3-36-38.8-36-73.7 0-34.7 15-64 35.6-73.5 25.1-105.9 103.5-183.2 196.3-183.2 93 0 171.4 77.5 196.4 183.6 20.1 9.9 34.7 38.9 34.7 73.1 0 34.5-14.8 63.6-35.1 73.3-19.3 79.7-68.8 143-131.9 169V694c86.5-27.8 155.4-110.8 181.1-217.2 25.4-12.2 43.9-48.6 43.9-91.7 0-42.9-18.2-79.1-43.4-91.5zM576 741.6v60.3c145.4 8.9 255 47.6 256 94.1H192c1-46.5 110.6-85.2 256-94.1v-60.3C249.5 758 97.4 849.4 96 960h832c-1.4-110.6-153.5-202-352-218.4z" fill="#505B7E" p-id="3041"></path></svg>