<?xml version="1.0" encoding="UTF-8" standalone="no"?>
<svg
   xmlns:dc="http://purl.org/dc/elements/1.1/"
   xmlns:cc="http://creativecommons.org/ns#"
   xmlns:rdf="http://www.w3.org/1999/02/22-rdf-syntax-ns#"
   xmlns:svg="http://www.w3.org/2000/svg"
   xmlns="http://www.w3.org/2000/svg"
   xmlns:xlink="http://www.w3.org/1999/xlink"
   xmlns:sodipodi="http://sodipodi.sourceforge.net/DTD/sodipodi-0.dtd"
   xmlns:inkscape="http://www.inkscape.org/namespaces/inkscape"
   id="图层_1"
   data-name="图层 1"
   viewBox="0 0 491.00001 158"
   version="1.1"
   sodipodi:docname="logo2.svg"
   width="491"
   height="158"
   inkscape:version="0.92.4 (5da689c313, 2019-01-14)">
  <metadata
     id="metadata202">
    <rdf:RDF>
      <cc:Work
         rdf:about="">
        <dc:format>image/svg+xml</dc:format>
        <dc:type
           rdf:resource="http://purl.org/dc/dcmitype/StillImage" />
        <dc:title>度见logo</dc:title>
      </cc:Work>
    </rdf:RDF>
  </metadata>
  <sodipodi:namedview
     pagecolor="#ffffff"
     bordercolor="#666666"
     borderopacity="1"
     objecttolerance="10"
     gridtolerance="10"
     guidetolerance="10"
     inkscape:pageopacity="0"
     inkscape:pageshadow="2"
     inkscape:window-width="1920"
     inkscape:window-height="1001"
     id="namedview200"
     showgrid="false"
     inkscape:showpageshadow="false"
     inkscape:zoom="1"
     inkscape:cx="303.65865"
     inkscape:cy="152.57125"
     inkscape:window-x="-9"
     inkscape:window-y="-9"
     inkscape:window-maximized="1"
     inkscape:current-layer="图层_1" />
  <defs
     id="defs115">
    <style
       id="style107">.cls-1{fill:#505b7e;}.cls-2{fill:url(#未命名的渐变_11);}.cls-3{fill:url(#未命名的渐变_11-2);}</style>
    <linearGradient
       id="未命名的渐变_11"
       x1="92.730003"
       y1="88.809998"
       x2="104.56"
       y2="88.809998"
       gradientUnits="userSpaceOnUse">
      <stop
         offset="0"
         stop-color="#ff2929"
         id="stop109" />
      <stop
         offset="1"
         stop-color="#ff3976"
         id="stop111" />
    </linearGradient>
    <linearGradient
       id="未命名的渐变_11-2"
       x1="500.73001"
       y1="104.81"
       x2="512.56"
       y2="104.81"
       xlink:href="#未命名的渐变_11" />
  </defs>
  <title
     id="title117">度见logo</title>
  <path
     class="cls-1"
     d="M 28.62,76.69 V 35.6 h -15.8 v 41.09 z"
     id="path119"
     inkscape:connector-curvature="0"
     style="fill:#505b7e" />
  <path
     class="cls-1"
     d="m 12.82,91.63 v 59.77 a 7.91,7.91 0 0 0 15.8,0 V 91.63 Z"
     id="path121"
     inkscape:connector-curvature="0"
     style="fill:#505b7e" />
  <path
     class="cls-1"
     d="M 60.23,16.63 H 61 a 63.23,63.23 0 0 1 62.73,55.32 h 15.9 A 79,79 0 0 0 61,0.83 h -0.79 a 7.9000005,7.9000005 0 1 0 0,15.8 z"
     id="path123"
     inkscape:connector-curvature="0"
     style="fill:#505b7e" />
  <path
     class="cls-1"
     d="M 123.75,87.78 A 63.23,63.23 0 0 1 61,143.06 h -0.79 a 7.91,7.91 0 0 0 0,15.81 H 61 a 79,79 0 0 0 78.65,-71.09 z"
     id="path125"
     inkscape:connector-curvature="0"
     style="fill:#505b7e" />
  <path
     class="cls-1"
     d="m 155.55,71.95 a 63.23,63.23 0 0 1 62.72,-55.32 h 0.79 a 7.9000005,7.9000005 0 1 0 0,-15.8 h -0.79 a 79,79 0 0 0 -78.63,71.12 z"
     id="path127"
     inkscape:connector-curvature="0"
     style="fill:#505b7e" />
  <path
     class="cls-1"
     d="m 219.06,143.06 h -0.79 A 63.23,63.23 0 0 1 155.55,87.78 h -15.91 a 79,79 0 0 0 78.63,71.12 h 0.79 a 7.91,7.91 0 1 0 0,-15.81 z"
     id="path129"
     inkscape:connector-curvature="0"
     style="fill:#505b7e" />
  <path
     class="cls-1"
     d="M 20.65,0.61 A 20.39,20.39 0 1 0 41,21 20.39,20.39 0 0 0 20.65,0.61 Z m 0,33.06 A 12.24,12.24 0 1 1 32.88,21.44 12.24,12.24 0 0 1 20.65,33.67 Z"
     id="path131"
     inkscape:connector-curvature="0"
     style="fill:#505b7e" />
  <path
     class="cls-2"
     d="m 20.65,15.68 a 5.92,5.92 0 1 0 5.91,5.91 5.92,5.92 0 0 0 -5.91,-5.91 z M 19,22.87 a 3,3 0 1 1 3,-3 3,3 0 0 1 -3,3 z"
     id="path133"
     inkscape:connector-curvature="0" />
  <rect
     class="cls-1"
     x="257.97"
     y="2.7200012"
     width="101.96"
     height="8.1599998"
     id="rect135"
     style="fill:#505b7e" />
  <rect
     class="cls-1"
     x="383.57999"
     y="2.7200012"
     width="92.169998"
     height="8.1599998"
     id="rect137"
     style="fill:#505b7e" />
  <rect
     class="cls-1"
     x="278.76999"
     y="25.559998"
     width="77.489998"
     height="8.1599998"
     id="rect139"
     style="fill:#505b7e" />
  <rect
     class="cls-1"
     x="293.45001"
     y="52.480011"
     width="48.529999"
     height="8.1599998"
     id="rect141"
     style="fill:#505b7e" />
  <rect
     class="cls-1"
     x="284.48001"
     y="67.569992"
     width="65.25"
     height="8.1599998"
     id="rect143"
     style="fill:#505b7e" />
  <rect
     class="cls-1"
     x="284.48001"
     y="104.67999"
     width="27.73"
     height="8.1599998"
     id="rect145"
     style="fill:#505b7e" />
  <rect
     class="cls-1"
     x="284.48001"
     y="80.620003"
     width="17.129999"
     height="8.1599998"
     id="rect147"
     style="fill:#505b7e" />
  <rect
     class="cls-1"
     x="378.69"
     y="2.7200012"
     width="4.8899999"
     height="8.1599998"
     id="rect149"
     style="fill:#505b7e" />
  <rect
     class="cls-1"
     x="475.75"
     y="2.7200012"
     width="4.8899999"
     height="8.1599998"
     id="rect151"
     style="fill:#505b7e" />
  <rect
     class="cls-1"
     x="485.95001"
     y="104.67999"
     width="4.8899999"
     height="8.1599998"
     id="rect153"
     style="fill:#505b7e" />
  <rect
     class="cls-1"
     x="322"
     y="104.67999"
     width="77.900002"
     height="8.1599998"
     id="rect155"
     style="fill:#505b7e" />
  <rect
     class="cls-1"
     x="429.67001"
     y="104.67999"
     width="56.279999"
     height="8.1599998"
     id="rect157"
     style="fill:#505b7e" />
  <rect
     class="cls-1"
     x="140.97139"
     y="292.43674"
     width="52.810001"
     height="8.1599998"
     transform="rotate(-45)"
     id="rect159"
     style="fill:#505b7e" />
  <rect
     class="cls-1"
     x="148.01813"
     y="270.27185"
     width="8.1599998"
     height="37.369999"
     transform="rotate(-45)"
     id="rect161"
     style="fill:#505b7e" />
  <rect
     class="cls-1"
     x="300.79001"
     y="-0.010949981"
     width="16.309999"
     height="2.9988091"
     id="rect163"
     style="fill:#505b7e;stroke-width:1.0257746" />
  <rect
     class="cls-1"
     x="293.45001"
     y="17.410004"
     width="8.1599998"
     height="35.07"
     id="rect165"
     style="fill:#505b7e" />
  <rect
     class="cls-1"
     x="333.82001"
     y="17.410004"
     width="8.1599998"
     height="35.07"
     id="rect167"
     style="fill:#505b7e" />
  <rect
     class="cls-1"
     x="257.97"
     y="2.7200012"
     width="16.309999"
     height="110.12"
     id="rect169"
     style="fill:#505b7e" />
  <rect
     class="cls-1"
     x="482.69"
     y="90"
     width="8.1599998"
     height="22.84"
     id="rect171"
     style="fill:#505b7e" />
  <rect
     class="cls-1"
     x="378.69"
     y="2.7200012"
     width="16.309999"
     height="73"
     id="rect173"
     style="fill:#505b7e" />
  <rect
     class="cls-1"
     x="420.29001"
     y="52.480011"
     width="8.1599998"
     height="30.18"
     id="rect175"
     style="fill:#505b7e" />
  <rect
     class="cls-1"
     x="428.44"
     y="75.730011"
     width="8.1599998"
     height="37.110001"
     id="rect177"
     style="fill:#505b7e" />
  <rect
     class="cls-1"
     x="202.97662"
     y="354.44287"
     width="42.099998"
     height="8.1599998"
     transform="rotate(-45)"
     id="rect179"
     style="fill:#505b7e" />
  <rect
     class="cls-1"
     x="464.33002"
     y="2.7200012"
     width="16.309999"
     height="73"
     id="rect181"
     style="fill:#505b7e" />
  <path
     class="cls-1"
     d="M 428.65,17.61 A 20.39,20.39 0 1 0 449,38 20.39,20.39 0 0 0 428.65,17.61 Z m 0,33.06 a 12.24,12.24 0 1 1 12.23,-12.23 12.24,12.24 0 0 1 -12.23,12.23 z"
     id="path183"
     inkscape:connector-curvature="0"
     style="fill:#505b7e" />
  <path
     class="cls-3"
     d="m 428.65,31.68 a 5.92,5.92 0 1 0 5.91,5.91 5.92,5.92 0 0 0 -5.91,-5.91 z M 427,38.87 a 3,3 0 1 1 3,-3 3,3 0 0 1 -3,3 z"
     id="path185"
     inkscape:connector-curvature="0" />
  <path
     class="cls-1"
     d="m 265.42,127.87 h -8.36 v 30.47 h 8.69 c 9,0 14.73,-5.11 14.73,-15.36 0,-10.25 -5.76,-15.11 -15.06,-15.11 z M 265,153.44 h -1.89 V 132.78 H 265 c 5.69,0 9.23,2.8 9.23,10.25 0,7.45 -3.5,10.41 -9.23,10.41 z"
     id="path187"
     inkscape:connector-curvature="0"
     style="fill:#505b7e" />
  <path
     class="cls-1"
     d="m 317,145.16 c 0,6.34 -2.31,8.48 -5.93,8.48 -3.62,0 -5.77,-2.14 -5.77,-8.48 v -17.29 h -6.09 v 16.76 c 0,10.12 4.45,14.28 11.86,14.28 7.41,0 11.77,-4.16 11.77,-14.28 V 127.87 H 317 Z"
     id="path189"
     inkscape:connector-curvature="0"
     style="fill:#505b7e" />
  <path
     class="cls-1"
     d="m 365,127.87 h -6.42 l -2.89,6.26 c -0.65,1.44 -1.27,2.92 -2,4.81 h -0.21 c -0.9,-1.89 -1.56,-3.37 -2.26,-4.81 l -3.05,-6.26 h -6.75 l 8,14.74 -8.57,15.73 h 6.47 l 3.25,-6.76 c 0.74,-1.56 1.44,-3.17 2.22,-5 H 353 c 0.9,1.85 1.6,3.46 2.39,5 l 3.41,6.76 h 6.76 L 357,142.9 Z"
     id="path191"
     inkscape:connector-curvature="0"
     style="fill:#505b7e" />
  <rect
     class="cls-1"
     x="392.42999"
     y="127.87"
     width="6.0900002"
     height="30.469999"
     id="rect193"
     style="fill:#505b7e" />
  <path
     class="cls-1"
     d="m 434.12,127.87 -9.76,30.47 h 6.17 l 2.14,-7.83 h 9.88 l 2.15,7.83 h 6.38 l -9.8,-30.47 z m -0.12,17.91 0.91,-3.34 c 0.9,-3.17 1.81,-6.63 2.59,-10 h 0.17 c 0.9,3.29 1.72,6.79 2.67,10 l 0.91,3.34 z"
     id="path195"
     inkscape:connector-curvature="0"
     style="fill:#505b7e" />
  <path
     class="cls-1"
     d="m 485.84,127.87 v 12.14 c 0,3.46 0.45,7.5 0.78,10.67 h -0.2 l -3,-6.59 -8.85,-16.22 h -6.27 v 30.47 h 5.77 v -12.23 c 0,-3.5 -0.46,-7.33 -0.75,-10.62 h 0.21 l 3.09,6.54 8.81,16.31 h 6.17 v -30.47 z"
     id="path197"
     inkscape:connector-curvature="0"
     style="fill:#505b7e" />
</svg>
